<?xml version="1.0" encoding="UTF-8" standalone="no"?>
<!-- Generator: Adobe Illustrator 16.0.0, SVG Export Plug-In . SVG Version: 6.00 Build 0)  -->

<svg
   xmlns:dc="http://purl.org/dc/elements/1.1/"
   xmlns:cc="http://creativecommons.org/ns#"
   xmlns:rdf="http://www.w3.org/1999/02/22-rdf-syntax-ns#"
   xmlns:svg="http://www.w3.org/2000/svg"
   xmlns="http://www.w3.org/2000/svg"
   xmlns:sodipodi="http://sodipodi.sourceforge.net/DTD/sodipodi-0.dtd"
   xmlns:inkscape="http://www.inkscape.org/namespaces/inkscape"
   version="1.1"
   id="Layer_1"
   x="0px"
   y="0px"
   width="136.913px"
   height="136.914px"
   viewBox="0 0 136.913 136.914"
   enable-background="new 0 0 136.913 136.914"
   xml:space="preserve"
   inkscape:version="0.48.4 r9939"
   sodipodi:docname="track.svg"><metadata
   id="metadata65"><rdf:RDF><cc:Work
       rdf:about=""><dc:format>image/svg+xml</dc:format><dc:type
         rdf:resource="http://purl.org/dc/dcmitype/StillImage" /></cc:Work></rdf:RDF></metadata><defs
   id="defs63">
	
	
</defs><sodipodi:namedview
   pagecolor="#ffffff"
   bordercolor="#666666"
   borderopacity="1"
   objecttolerance="10"
   gridtolerance="10"
   guidetolerance="10"
   inkscape:pageopacity="0"
   inkscape:pageshadow="2"
   inkscape:window-width="1366"
   inkscape:window-height="710"
   id="namedview61"
   showgrid="false"
   inkscape:zoom="1.7237098"
   inkscape:cx="68.456497"
   inkscape:cy="68.457001"
   inkscape:window-x="-8"
   inkscape:window-y="-8"
   inkscape:window-maximized="1"
   inkscape:current-layer="Layer_1" />
<g
   id="g3139"><g
     style="fill:#344e5d;fill-opacity:1"
     id="g5">
		<g
   style="fill:#344e5d;fill-opacity:1"
   id="g7">
			<g
   style="fill:#344e5d;fill-opacity:1"
   id="g9">
				<g
   style="fill:#344e5d;fill-opacity:1"
   id="g11">
					<circle
   cx="68.456001"
   cy="68.457001"
   r="63.333"
   id="circle13"
   sodipodi:cx="68.456001"
   sodipodi:cy="68.457001"
   sodipodi:rx="63.333"
   sodipodi:ry="63.333"
   style="fill:#344e5d;fill-opacity:1" />
				</g>
			</g>
		</g>
	</g><g
     id="g15">
		<g
   id="g17">
			<path
   d="m 76.771,105.905 c -2.031,-5.91 -3.182,-7.449 -7.041,-7.449 -3.809,0 -5.131,1.954 -7.037,7.449 -6.502,0.63 -11.064,2.107 -11.064,3.828 0,2.295 8.104,4.154 18.102,4.154 9.998,0 18.104,-1.859 18.104,-4.154 -10e-4,-1.721 -4.564,-3.197 -11.064,-3.828 z"
   id="path19"
   inkscape:connector-curvature="0"
   style="fill:#505251" />
		</g>
		<g
   id="g21">
			<g
   id="g23">
				<path
   d="m 115.543,95.148 c 0,3.024 -2.451,5.476 -5.475,5.476 0,0 -22.531,3.174 -41.525,3.174 -14.541,0 -39.25,-3.174 -39.25,-3.174 -3.025,0 -5.477,-2.451 -5.477,-5.476 V 41.07 c 0,-3.024 2.451,-5.476 5.477,-5.476 h 80.775 c 3.023,0 5.475,2.451 5.475,5.476 v 54.078 z"
   id="path25"
   inkscape:connector-curvature="0"
   style="fill:#3d4040" />
			</g>
		</g>
		<g
   id="g27">
			<rect
   x="27.516001"
   y="39.547001"
   width="84.135002"
   height="56.904999"
   id="rect29"
   style="fill:#5dc0c1" />
		</g>
		<g
   id="g31">
			<circle
   cx="52.654999"
   cy="69.302002"
   r="4.3839998"
   id="circle33"
   sodipodi:cx="52.654999"
   sodipodi:cy="69.302002"
   sodipodi:rx="4.3839998"
   sodipodi:ry="4.3839998"
   style="fill:#fdf2f7" />
		</g>
		<g
   id="g35">
			<circle
   cx="74.760002"
   cy="61.84"
   r="4.3829999"
   id="circle37"
   sodipodi:cx="74.760002"
   sodipodi:cy="61.84"
   sodipodi:rx="4.3829999"
   sodipodi:ry="4.3829999"
   style="fill:#fdf2f7" />
		</g>
		<g
   id="g39">
			<circle
   cx="96.584999"
   cy="51.955002"
   r="4.3839998"
   id="circle41"
   sodipodi:cx="96.584999"
   sodipodi:cy="51.955002"
   sodipodi:rx="4.3839998"
   sodipodi:ry="4.3839998"
   style="fill:#fdf2f7" />
		</g>
		<g
   id="g43">
			<g
   id="g45">
				<g
   id="g47">
					<path
   d="m 111.449,43.433 c -3.805,-0.975 -6.607,2.007 -10.156,5.777 -0.256,0.272 -0.518,0.55 -0.783,0.829 0.285,0.581 0.459,1.226 0.459,1.915 0,2.42 -1.965,4.383 -4.385,4.383 -0.805,0 -1.549,-0.232 -2.197,-0.61 -3.787,2.894 -8.578,5.292 -15.248,5.901 -0.004,0 -0.012,0.002 -0.016,0.002 0.002,0.071 0.02,0.138 0.02,0.21 0,2.421 -1.963,4.384 -4.383,4.384 -1.922,0 -3.537,-1.245 -4.129,-2.965 -2.494,0.593 -4.971,1.234 -6.881,1.73 l -1.699,0.438 c -2.07,0.528 -3.936,1.048 -5.646,1.634 0.395,0.657 0.635,1.418 0.635,2.241 0,2.42 -1.963,4.383 -4.383,4.383 -1.789,0 -3.322,-1.074 -4.004,-2.609 -3.043,2.377 -5.748,5.784 -8.723,11.139 -2.1,3.777 -4.326,5.69 -6.621,5.69 -0.047,0 -0.092,0 -0.137,-0.002 -2.863,-0.094 -4.896,-3.127 -5.656,-4.464 v 13.014 h 84.135 V 43.492 l -0.202,-0.059 z"
   id="path49"
   inkscape:connector-curvature="0"
   style="fill:#357180" />
				</g>
				<g
   id="g51">
					<g
   id="g53">
						<path
   d="m 27.506,81.497 v 1.956 c 0.76,1.338 2.844,4.384 5.709,4.478 0.045,0.002 0.09,0.003 0.135,0.003 2.295,0 4.521,-1.914 6.621,-5.69 C 46.504,70.488 51.729,68.1 62.094,65.455 l 1.697,-0.438 c 4.355,-1.129 11.648,-3.018 15.391,-3.361 11.447,-1.046 17.383,-7.351 22.152,-12.417 3.551,-3.771 6.5,-6.748 10.305,-5.774 l -0.006,-0.871 c -4.307,-1.101 -7.195,2.051 -10.945,6.035 -4.668,4.956 -10.477,11.125 -21.588,12.14 -3.814,0.35 -11.148,2.25 -15.531,3.387 l -1.695,0.437 c -10.623,2.711 -15.979,5.159 -22.68,17.218 -1.965,3.535 -3.969,5.303 -5.949,5.231 -3.055,-0.099 -5.189,-4.531 -5.211,-4.576 l -0.528,-0.969 z"
   id="path55"
   inkscape:connector-curvature="0"
   style="fill:#fdf7fa" />
					</g>
					<g
   id="g57">
						<polygon
   points="27.512,83.43 27.516,83.439 27.516,83.439 "
   id="polygon59"
   style="fill:#fdf7fa" />
					</g>
				</g>
			</g>
		</g>
	</g></g>
</svg>